<?xml version="1.0" encoding="UTF-8"?><svg id="b" xmlns="http://www.w3.org/2000/svg" width="31.31" height="31.31" viewBox="0 0 31.31 31.31"><g id="c"><g id="d"><path d="M26.73,4.59C20.61-1.53,10.7-1.53,4.59,4.59,1.53,7.64,0,11.65,0,15.66s1.53,8.01,4.59,11.07c6.11,6.11,16.03,6.11,22.14,0,3.06-3.06,4.59-7.06,4.59-11.07s-1.53-8.01-4.59-11.07ZM24.8,24.8c-2.44,2.44-5.69,3.79-9.15,3.79s-6.7-1.35-9.15-3.79c-2.44-2.44-3.79-5.69-3.79-9.15s1.35-6.7,3.79-9.15c2.44-2.44,5.69-3.79,9.15-3.79s6.7,1.35,9.15,3.79c2.44,2.44,3.79,5.69,3.79,9.15s-1.35,6.7-3.79,9.15Z" fill="#1e90ff"/><path d="M16.64,20.45c-.2-.19-.44-.35-.7-.46-.27-.11-.56-.17-.87-.17s-.61.06-.88.17c-.27.11-.5.27-.7.46-.2.19-.35.42-.47.68s-.17.54-.17.84.06.58.17.85c.11.26.27.49.47.68.2.19.43.34.7.45.27.11.56.16.88.16s.6-.05.87-.16c.27-.11.5-.26.7-.45.2-.19.36-.42.47-.68.11-.26.17-.55.17-.85s-.06-.58-.17-.84-.27-.49-.47-.68Z" fill="#1e90ff"/><path d="M19.39,7.21c-.44-.39-.98-.69-1.61-.9-.63-.21-1.34-.31-2.13-.31-.56,0-1.08.05-1.56.14s-.93.23-1.35.4c-.42.17-.81.37-1.18.6-.36.23-.7.47-1.01.73l1.03,1.58c.18.31.44.46.8.46.16,0,.32-.05.48-.14.16-.09.35-.2.56-.31s.47-.22.77-.31c.3-.09.67-.14,1.11-.14.58,0,1.03.15,1.36.45.33.3.5.7.5,1.2,0,.42-.09.78-.26,1.09-.18.31-.4.58-.67.83-.27.25-.56.48-.87.69-.31.21-.6.43-.87.67-.27.23-.49.48-.67.76-.18.28-.26.6-.26.97,0,.05,0,.1,0,.15,0,.05.01.1.02.15l.28,2.02h2.66l.35-1.76c.05-.26.18-.49.4-.7.21-.21.47-.42.75-.64.29-.22.59-.45.92-.7.32-.25.62-.54.89-.89.27-.34.5-.74.67-1.21.18-.46.26-1.01.26-1.66s-.12-1.28-.36-1.83c-.24-.55-.58-1.02-1.02-1.41Z" fill="#1e90ff"/></g></g></svg>