<?xml version="1.0" encoding="UTF-8"?><svg id="b" xmlns="http://www.w3.org/2000/svg" width="25.25" height="27.74" viewBox="0 0 25.25 27.74"><g id="c"><g id="d"><path d="M24.28,15.49h-2.16v4.76h2.16c.54,0,.97-.44.97-.98v-2.81c0-.54-.44-.97-.97-.97Z" fill="#1e90ff"/><path d="M24.28,9.17h-2.16v4.76h2.16c.54,0,.97-.43.97-.97v-2.82c0-.54-.44-.97-.97-.97Z" fill="#1e90ff"/><path d="M24.28,2.84h-2.16v4.76h2.16c.54,0,.97-.44.97-.97v-2.81c0-.54-.44-.97-.97-.97Z" fill="#1e90ff"/><path d="M22.06,25.31c0,.45-.36.81-.81.81H2.43c-.45,0-.81-.36-.81-.81v-.33h17.51c.9,0,1.62-.73,1.62-1.62V1.62c0-.9-.73-1.62-1.62-1.62H1.62C.73,0,0,.72,0,1.62v21.73s0,0,0,0v1.95c0,1.34,1.09,2.43,2.43,2.43h18.81c1.34,0,2.43-1.09,2.43-2.43v-3.37h-1.62v3.37Z" fill="#1e90ff"/></g></g></svg>