<?xml version="1.0" encoding="UTF-8"?><svg id="b" xmlns="http://www.w3.org/2000/svg" width="29.88" height="29.25" viewBox="0 0 29.88 29.25"><g id="c"><g id="d"><path d="M15.57,21.87v6.83c1.91-.63,3.57-2.74,4.66-5.7-1.44-.63-3.01-1.02-4.66-1.13Z" fill="#1e90ff"/><path d="M21.59,15.05h-6.01v5.21c1.82.11,3.55.53,5.15,1.21.53-1.92.84-4.1.87-6.41Z" fill="#1e90ff"/><path d="M15.57,8.57v5.13h6c-.09-2.28-.45-4.41-1.02-6.26-1.55.63-3.23,1.03-4.98,1.13Z" fill="#1e90ff"/><path d="M14.22,28.79v-6.94c-1.77.05-3.46.43-5.01,1.07,1.15,3.17,2.95,5.38,5.01,5.87Z" fill="#1e90ff"/><path d="M7.9,13.7h6.32v-5.11c-1.88-.04-3.67-.42-5.33-1.07-.56,1.83-.9,3.93-.99,6.18Z" fill="#1e90ff"/><path d="M15.57.78v6.19c1.56-.1,3.06-.47,4.45-1.04-1.09-2.67-2.66-4.55-4.45-5.14Z" fill="#1e90ff"/><path d="M14.22,6.99V.68c-1.94.47-3.64,2.45-4.8,5.32,1.49.59,3.11.94,4.8.99Z" fill="#1e90ff"/><path d="M8.73,21.38c1.71-.69,3.56-1.09,5.5-1.14v-5.19h-6.34c.02,2.28.32,4.43.84,6.33Z" fill="#1e90ff"/><path d="M7.25,22.07c-.57-2.11-.9-4.49-.92-7.02H0c.09,3.66,1.5,6.99,3.76,9.54,1.04-.99,2.21-1.84,3.48-2.52Z" fill="#1e90ff"/><path d="M17.96,0c1.41,1.06,2.64,2.87,3.54,5.19,1.05-.59,2.02-1.3,2.88-2.13-1.83-1.5-4.02-2.57-6.42-3.06Z" fill="#1e90ff"/><path d="M23.15,15.05c-.03,2.57-.37,5-.95,7.13,1.33.74,2.55,1.66,3.61,2.74,2.44-2.59,3.97-6.05,4.07-9.87h-6.73Z" fill="#1e90ff"/><path d="M7.93,5.3c.87-2.28,2.05-4.08,3.41-5.17-2.32.57-4.43,1.69-6.19,3.21.84.76,1.77,1.42,2.77,1.96Z" fill="#1e90ff"/><path d="M22.04,6.73c.62,2.07,1.01,4.43,1.1,6.96h6.72c-.23-3.71-1.82-7.06-4.28-9.55-1.05,1.02-2.24,1.89-3.53,2.59Z" fill="#1e90ff"/><path d="M6.34,13.7c.08-2.48.46-4.81,1.07-6.85-1.24-.64-2.39-1.45-3.41-2.39C1.72,6.91.25,10.14.02,13.7h6.32Z" fill="#1e90ff"/><path d="M21.7,23.75c-.86,2.42-2.06,4.34-3.46,5.51,2.41-.54,4.6-1.67,6.41-3.22-.87-.88-1.87-1.65-2.95-2.28Z" fill="#1e90ff"/><path d="M7.73,23.63c-1.03.58-1.99,1.29-2.84,2.1,1.73,1.58,3.84,2.76,6.18,3.38-1.36-1.2-2.51-3.1-3.34-5.48Z" fill="#1e90ff"/></g></g></svg>