<?xml version="1.0" encoding="UTF-8"?><svg id="b" xmlns="http://www.w3.org/2000/svg" width="22.73" height="20.69" viewBox="0 0 22.73 20.69"><g id="c"><g id="d"><path d="M6.02,10.78c-.53,0-.97.41-1.01.92-.28-.06-.58-.1-.88-.1-2.28,0-4.13,1.85-4.13,4.13s1.85,4.13,4.13,4.13c.3,0,.6-.03.88-.1.05.52.49.92,1.01.92.56,0,1.02-.46,1.02-1.02v-7.87c0-.56-.46-1.02-1.02-1.02Z" fill="#1e90ff"/><path d="M16.71,20.69c.53,0,.97-.41,1.01-.92.28.06.58.1.88.1,2.28,0,4.13-1.85,4.13-4.13,0-2.28-1.85-4.13-4.13-4.13-.3,0-.6.03-.88.1-.05-.52-.49-.92-1.01-.92-.56,0-1.02.46-1.02,1.02v7.87c0,.56.46,1.02,1.02,1.02Z" fill="#1e90ff"/><path d="M2.98,11.11c0-.17-.02-.34-.02-.52C2.96,5.71,6.73,1.75,11.37,1.75s8.4,3.97,8.4,8.84c0,.17,0,.35-.02.52.6.29,1.15.6,1.66.95.06-.48.1-.97.1-1.46C21.52,4.75,16.96,0,11.37,0S1.21,4.75,1.21,10.59c0,.5.04.99.1,1.46.51-.34,1.07-.66,1.66-.95Z" fill="#1e90ff"/></g></g></svg>