<?xml version="1.0" encoding="UTF-8"?><svg id="b" xmlns="http://www.w3.org/2000/svg" width="29.82" height="31.27" viewBox="0 0 29.82 31.27"><g id="c"><path id="d" d="M29.13.01L9.33,3.66c-.54.09-.6.84-.6.84v16.34c-1.63-.49-3.55-.37-5.27.49-3.08,1.54-4.34,4.86-2.81,7.4,1.52,2.54,5.2,3.23,8.34,1.81,3.9-1.76,3.6-6.53,3.6-6.78v-11.15s13.36-2.34,13.36-2.34v8.05c-1.63-.49-3.55-.36-5.27.49-3.08,1.55-4.34,4.86-2.81,7.4,1.52,2.54,5.16,3.15,8.34,1.8,3.93-1.67,3.6-6.52,3.6-6.78l-.02-20.66c.12-.27-.12-.66-.66-.57ZM25.95,9.02l-13.36,2.34v-4.2s13.36-2.46,13.36-2.46v4.32Z" fill="#1e90ff"/></g></svg>