<?xml version="1.0" encoding="UTF-8"?><svg id="b" xmlns="http://www.w3.org/2000/svg" width="35.14" height="35.54" viewBox="0 0 35.14 35.54"><g id="c"><g id="d"><path d="M15.92.59c1.02-1.02,1.85-.67,1.85.77v32.83c0,1.44-.83,1.78-1.85.77l-9.57-9.57H0v-15.23h6.35L15.92.59Z" fill="#1e90ff"/><path d="M24.57,17.83c0-2.23-.97-4.36-2.67-5.82-.24-.21-.61-.19-.83.03l-1.05,1.08c-.11.11-.17.27-.17.43,0,.01,0,.02,0,.03,0,.17.09.33.22.44,1.14.95,1.79,2.34,1.79,3.82,0,1.46-.64,2.85-1.77,3.8-.13.11-.21.27-.22.44,0,.17.06.34.18.46l1.07,1.06c.23.22.59.24.83.02,1.67-1.46,2.63-3.57,2.63-5.78Z" fill="#1e90ff"/><path d="M29.73,17.8c0-3.64-1.46-7.03-4.11-9.54-.24-.23-.62-.22-.85.02l-1.05,1.07c-.11.11-.17.27-.17.43,0,0,0,0,0,.01,0,.16.07.32.19.43,2.11,2,3.28,4.69,3.28,7.58s-1.15,5.55-3.23,7.54c-.12.11-.19.27-.19.43,0,.16.06.32.18.44l1.07,1.06c.23.23.61.24.85,0,2.61-2.51,4.04-5.87,4.04-9.48Z" fill="#1e90ff"/><path d="M29.38,30.95c3.66-3.37,5.76-8.14,5.76-13.1,0-5.05-2.17-9.89-5.94-13.27-.24-.22-.61-.2-.84.03l-1.05,1.08c-.11.11-.17.27-.17.43,0,0,0,.01,0,.02,0,.17.08.32.2.43,3.23,2.87,5.09,6.98,5.09,11.28s-1.8,8.29-4.93,11.15c-.12.11-.19.27-.2.44,0,.17.06.33.18.45l1.07,1.06c.23.23.6.24.84.02Z" fill="#1e90ff"/></g></g></svg>